<?xml version="1.0" encoding="UTF-8" standalone="no"?>
<svg
   xmlns:dc="http://purl.org/dc/elements/1.1/"
   xmlns:cc="http://creativecommons.org/ns#"
   xmlns:rdf="http://www.w3.org/1999/02/22-rdf-syntax-ns#"
   xmlns:svg="http://www.w3.org/2000/svg"
   xmlns="http://www.w3.org/2000/svg"
   xmlns:sodipodi="http://sodipodi.sourceforge.net/DTD/sodipodi-0.dtd"
   xmlns:inkscape="http://www.inkscape.org/namespaces/inkscape"
   version="1.1"
   id="svg2"
   xml:space="preserve"
   width="1028.9467"
   height="187.08"
   viewBox="0 0 1028.9467 187.08"
   sodipodi:docname="continental-logo.eps"><metadata
     id="metadata8"><rdf:RDF><cc:Work
         rdf:about=""><dc:format>image/svg+xml</dc:format><dc:type
           rdf:resource="http://purl.org/dc/dcmitype/StillImage" /></cc:Work></rdf:RDF></metadata><defs
     id="defs6" /><sodipodi:namedview
     pagecolor="#ffffff"
     bordercolor="#666666"
     borderopacity="1"
     objecttolerance="10"
     gridtolerance="10"
     guidetolerance="10"
     inkscape:pageopacity="0"
     inkscape:pageshadow="2"
     inkscape:window-width="640"
     inkscape:window-height="480"
     id="namedview4" /><g
     id="g10"
     inkscape:groupmode="layer"
     inkscape:label="ink_ext_XXXXXX"
     transform="matrix(1.3333333,0,0,-1.3333333,0,187.08)"><g
       id="g12"
       transform="scale(0.1)"><path
         d="m 950.043,1403.13 c 0,0 172.087,-172 251.197,-260.73 v -67.28 c -73.73,77.96 -226.607,143.21 -368.717,143.21 -321.699,0 -523.671,-242.631 -523.671,-542.92 0,-299.219 191.289,-541.859 523.671,-541.859 165.641,0 298.127,78.097 371.897,158.219 V 227.711 C 1103.94,89.8008 920.113,0 691.43,0 282.102,0 0,297.07 0,675.41 c 0,378.3 313.09,674.35 691.43,674.35 96.242,0 182.769,-16.03 258.613,-42.78 v 96.15"
         style="fill:#f39910;fill-opacity:1;fill-rule:nonzero;stroke:none"
         id="path14" /><path
         d="m 499.039,675.41 c 0,-215.883 132.527,-391.14 359.09,-391.14 226.561,0 359.091,175.257 359.091,391.14 0,215.879 -132.53,391.1 -359.091,391.1 -226.563,0 -359.09,-175.221 -359.09,-391.1 m 265.059,2.117 c 0,218.043 20.304,314.196 94.031,314.196 73.769,0 94.035,-96.153 94.035,-314.196 0,-218 -20.266,-314.156 -94.035,-314.156 -73.727,0 -94.031,96.156 -94.031,314.156"
         style="fill:#f39910;fill-opacity:1;fill-rule:nonzero;stroke:none"
         id="path16" /><path
         d="m 1722.71,807.895 c 0,64.148 -20.31,114.339 -75.85,114.339 -55.58,0 -78.05,-50.191 -78.05,-114.339 V 385.809 h 65.2 V 318.48 h -356.93 v 67.329 h 66.27 V 967.18 h -66.27 v 65.16 h 281.09 v -109 h 3.18 c 26.71,59.863 88.69,122.86 188.11,122.86 104.71,0 168.86,-64.098 189.17,-148.466 7.46,-33.156 9.58,-87.675 9.58,-115.445 v -396.48 h 85.47 V 318.48 h -310.97 v 489.415"
         style="fill:#f39910;fill-opacity:1;fill-rule:nonzero;stroke:none"
         id="path18" /><path
         d="M 2336.17,967.18 V 439.223 c 0,-36.332 23.49,-44.852 45.96,-44.852 21.37,0 41.67,7.418 41.67,7.418 v -65.16 c 0,0 -42.73,-26.668 -137.87,-26.668 -111.16,0 -176.32,54.527 -176.32,169.84 V 967.18 h -75.93 v 48.07 c 84.49,67.29 182.85,144.28 260.82,209.44 h 41.67 v -192.35 h 87.63 v -65.16 h -87.63"
         style="fill:#f39910;fill-opacity:1;fill-rule:nonzero;stroke:none"
         id="path20" /><path
         d="m 2554.79,967.18 h -65.25 v 65.16 h 290.7 V 385.809 h 66.27 V 318.48 h -356.97 v 67.329 h 65.25 z m -23.58,254.33 c 0,-140.12 275.79,-140.12 275.79,0 0,140.17 -275.79,140.17 -275.79,0"
         style="fill:#f39910;fill-opacity:1;fill-rule:nonzero;stroke:none"
         id="path22" /><path
         d="m 3349.35,807.895 c 0,64.148 -20.36,114.339 -75.89,114.339 -55.58,0 -78.01,-50.191 -78.01,-114.339 V 385.809 h 65.16 V 318.48 h -356.93 v 67.329 h 66.27 V 967.18 h -66.27 v 65.16 h 281.09 v -109 h 3.17 c 26.71,59.863 88.7,122.86 188.11,122.86 104.77,0 168.87,-64.098 189.17,-148.466 7.47,-33.156 9.58,-87.675 9.58,-115.445 v -396.48 h 85.52 V 318.48 h -310.97 v 489.415"
         style="fill:#f39910;fill-opacity:1;fill-rule:nonzero;stroke:none"
         id="path24" /><path
         d="m 3914.65,713.906 c 0,188.11 14.96,258.614 79.06,258.614 65.21,0 78.01,-68.426 80.18,-258.614 z m 327.04,-205.199 c -32.1,-37.434 -82.33,-66.262 -157.12,-66.262 -65.2,0 -165.68,36.34 -169.92,201.93 h 381.51 c 1.07,12.848 2.12,38.539 2.12,51.387 0,200.824 -82.24,350.438 -297.06,350.438 -215.88,0 -325.99,-165.637 -325.99,-371.891 0,-206.258 110.11,-368.629 325.99,-368.629 138.93,0 226.56,65.16 277.81,167.715 l -37.34,35.312"
         style="fill:#f39910;fill-opacity:1;fill-rule:nonzero;stroke:none"
         id="path26" /><path
         d="m 4790.97,807.895 c 0,64.148 -20.32,114.339 -75.89,114.339 -55.59,0 -78.01,-50.191 -78.01,-114.339 V 385.809 h 65.16 V 318.48 H 4345.3 v 67.329 h 66.26 V 967.18 h -66.26 v 65.16 h 281.09 v -109 h 3.17 c 26.76,59.863 88.74,122.86 188.12,122.86 104.75,0 168.85,-64.098 189.17,-148.466 7.46,-33.156 9.61,-87.675 9.61,-115.445 v -396.48 h 85.47 V 318.48 h -310.96 v 489.415"
         style="fill:#f39910;fill-opacity:1;fill-rule:nonzero;stroke:none"
         id="path28" /><path
         d="M 5404.38,967.18 V 439.223 c 0,-36.332 23.49,-44.852 45.96,-44.852 21.37,0 41.68,7.418 41.68,7.418 v -65.16 c 0,0 -42.73,-26.668 -137.87,-26.668 -111.16,0 -176.33,54.527 -176.33,169.84 V 967.18 h -75.93 v 48.07 c 84.5,67.29 182.82,144.28 260.82,209.44 h 41.67 v -192.35 h 87.64 v -65.16 h -87.64"
         style="fill:#f39910;fill-opacity:1;fill-rule:nonzero;stroke:none"
         id="path30" /><path
         d="m 5912.03,404.039 h -3.22 c -41.63,-58.848 -97.26,-98.359 -182.73,-98.359 -116.5,0 -189.2,99.414 -189.2,217.996 0,143.125 101.58,234.066 263.99,234.066 66.31,0 101.49,-15.051 101.49,-15.051 v 44.899 c 0,86.57 -53.37,132.527 -131.42,132.527 -107.94,0 -163.48,-83.394 -163.48,-83.394 l -39.51,48.121 c 71.56,111.164 181.58,161.356 284.22,161.356 173.19,0 275.74,-102.552 275.74,-258.61 V 385.809 h 72.67 V 318.48 h -288.55 z m -9.67,268.191 c -6.35,6.403 -20.3,14.922 -49.13,14.922 -67.32,0 -82.29,-66.308 -82.29,-134.695 0,-67.277 20.31,-121.758 78.05,-121.758 27.77,0 44.86,11.746 53.37,21.367 V 672.23"
         style="fill:#f39910;fill-opacity:1;fill-rule:nonzero;stroke:none"
         id="path32" /><path
         d="m 6279.65,1231.13 h -78.01 v 65.16 h 303.51 V 385.809 h 87.63 V 318.48 h -313.13 v 912.65"
         style="fill:#f39910;fill-opacity:1;fill-rule:nonzero;stroke:none"
         id="path34" /><path
         d="m 7503.31,771.563 c -6.4,24.589 -15.98,52.359 -23.49,66.265 0,0 4.29,4.281 12.86,-1.105 8.51,-5.297 63.03,-42.735 63.03,-42.735 27.77,-40.57 44.86,-207.273 45.91,-267.175 -25.59,11.835 -61.93,32.089 -85.47,54.519 l -12.84,190.231"
         style="fill:#f39910;fill-opacity:1;fill-rule:nonzero;stroke:none"
         id="path36" /><path
         d="m 7338.78,926.52 c -44.9,49.179 -82.33,95.14 -118.62,149.57 23.43,44.89 40.56,163.52 29.88,209.48 -4.28,13.9 -42.74,65.16 -49.13,72.66 -9.63,9.63 -40.62,44.86 -55.59,44.86 -3.22,0 -6.39,-1.06 -7.5,-2.08 l 4.28,-39.55 c -41.67,-26.76 -96.19,-63.09 -145.33,-99.42 0,-13.82 1.06,-35.23 2.12,-42.74 7.46,-6.4 16.07,-11.74 25.65,-14.92 19.25,3.18 79.11,18.19 95.14,15.98 l -58.81,-88.69 -67.33,-48.03 -84.4,26.71 c -5.34,1.01 -10.68,0 -13.91,-4.33 l -61.98,-67.28 c -3.18,-3.18 -5.34,-6.4 -5.34,-13.9 l -2.17,-75.895 c 0,0 -1.01,-11.699 -1.01,-24.547 0,-54.519 24.59,-80.168 24.59,-80.168 l 40.61,58.758 c -5.38,8.52 -14.96,32.051 -17.13,42.778 0,2.121 1.07,65.164 1.07,65.164 l 39.55,28.87 104.71,-73.726 c 0,0 28.88,-53.461 56.65,-85.511 18.14,-22.426 109,-83.305 152.84,-109 4.24,-23.532 13.85,-62.028 21.36,-82.247 l 128.25,-131.468 -75.89,-95.098 c -26.71,-17.082 -52.36,-48.164 -50.24,-76.988 h 87.68 l 9.58,50.289 104.76,116.406 c 5.3,6.445 5.3,9.629 2.11,19.258 l -29.93,100.473 c 15.01,17.128 47.02,59.777 47.02,111.164 0,92.925 -101.49,116.414 -133.54,143.168 v 0"
         style="fill:#f39910;fill-opacity:1;fill-rule:nonzero;stroke:none"
         id="path38" /><path
         d="m 6866.36,1117.77 c -3.18,-1.02 -81.18,-22.43 -81.18,-22.43 0,0 -36.34,-13.82 -52.41,-24.55 -15.98,-10.68 -34.17,-28.83 -35.27,-38.45 l 69.48,-16.03 c 10.73,11.75 22.43,24.55 33.16,33.07 l 16.02,7.51 57.71,58.75 c 0,0 -2.12,3.23 -7.51,2.13"
         style="fill:#f39910;fill-opacity:1;fill-rule:nonzero;stroke:none"
         id="path40" /><path
         d="m 7194.46,517.23 98.31,94.036 40.67,-40.567 -105.82,-89.804 c -8.57,-10.637 -14.97,-27.766 -20.32,-38.45 h -78 c 4.28,28.828 44.85,65.168 65.16,74.785"
         style="fill:#f39910;fill-opacity:1;fill-rule:nonzero;stroke:none"
         id="path42" /><path
         d="m 6672.91,318.48 v 34.168 H 7717.07 V 318.48 H 6672.91"
         style="fill:#f39910;fill-opacity:1;fill-rule:nonzero;stroke:none"
         id="path44" /></g></g></svg>
